Coordinates
version=1
nRows=8
nColumns=28
inDegrees=yes

Units are S.I. units (second, meters, Newtons, ...)
Angles are in degrees.

endheader
time	pelvis_tilt	pelvis_list	pelvis_rotation	pelvis_tx	pelvis_ty	pelvis_tz	hip_flexion_r	hip_adduction_r	hip_rotation_r	knee_angle_r	ankle_angle_r	subtalar_angle_r	mtp_angle_r	hip_flexion_l	hip_adduction_l	hip_rotation_l	knee_angle_l	socket_flexion	socket_adduction	socket_rotation	socket_tx	socket_ty	socket_tz	foot_flex	lumbar_extension	lumbar_bending	lumbar_rotation
      0.63333333	      1.81658641	     -4.10235864	      5.64489856	      0.00185166	      0.98961297	      0.26764910	     21.73410210	      5.06010107	     -7.90956422	     -4.90317268	     16.98547012	    -17.86917258	    -20.04423345	    -26.33420862	     -9.29342724	     -6.89536790	      0.32267222	      2.72385818	      6.36548367	     22.91831181	     -0.00858045	      0.00281709	     -0.01004681	      8.19536241	    -12.04666087	      4.59394705	     -1.85093043
      0.63750000	      1.81656440	     -4.10235387	      5.64472099	      0.00185333	      0.98961245	      0.26765353	     21.73408668	      5.06009490	     -7.90950539	     -4.90315416	     16.98555591	    -17.86908854	    -20.04402265	    -26.33420532	     -9.29338733	     -6.89527325	      0.32271176	      2.72390752	      6.36552101	     22.91831181	     -0.00858098	      0.00281503	     -0.01004932	      8.19537084	    -12.04648838	      4.59413539	     -1.85082380
      0.64166667	      1.85287717	     -4.21737167	      5.78723952	      0.00824023	      0.98879997	      0.26762039	     21.85496701	      5.17699068	     -7.60352976	     -5.63694804	     16.75723607	    -17.81348529	    -19.97021644	    -26.48087580	     -9.39230803	     -6.78851541	      0.14228633	      3.00004327	      6.27976510	     22.91831181	     -0.00736126	      0.00282209	     -0.00930069	      8.13855747	    -12.02220320	      4.87285609	     -1.81791975
      0.64583333	      1.88611520	     -4.36306316	      5.61951374	      0.01462066	      0.98782447	      0.26829851	     22.31139702	      5.41119937	     -7.61360513	     -6.99632580	     16.26158411	    -17.93371453	    -19.63339035	    -26.68440920	     -9.53421032	     -7.19618252	     -0.03059844	      3.25192781	      6.36807812	     22.91831181	     -0.00624677	      0.00305406	     -0.01008105	      8.05096451	    -11.99848818	      5.06992326	     -1.79579802
      0.65000000	      1.92248922	     -4.50748078	      5.75275087	      0.02099632	      0.98709702	      0.26834231	     22.43394078	      5.56776178	     -7.29197664	     -7.75289687	     16.00072537	    -17.87019175	    -19.52578243	    -26.79090871	     -9.64435895	     -7.07699253	     -0.23916536	      3.56662432	      6.25720517	     22.91831181	     -0.00484453	      0.00304381	     -0.00913114	      7.95165648	    -11.97906867	      5.36052199	     -1.75092860
      0.65416667	      1.22446017	     -4.52744351	      5.56862495	      0.02766191	      0.98515105	      0.26918244	     23.78717141	      5.53158049	     -7.64088035	     -9.31863836	     13.27559782	    -18.25911023	     -9.96267004	    -25.99309990	     -9.68019720	     -7.37351613	      0.93899962	      5.30837309	      6.98498224	     22.91831181	      0.00260218	      0.00407207	     -0.01295254	      7.69493904	    -11.05504245	      5.21301768	     -1.04741178
      0.65833333	      1.44820434	     -4.71338354	      5.48407582	      0.03412576	      0.98456987	      0.26948616	     23.84090929	      5.80445641	     -7.43927788	    -10.34983936	     12.96481684	    -18.28828865	     -9.85374088	    -26.26655691	     -9.76381750	     -7.75770255	      0.67213537	      5.70580300	      6.92620478	     22.91831181	      0.00474278	      0.00439754	     -0.01253875	      7.65058638	    -11.25871482	      5.59807293	     -1.37314530
      0.66250000	      1.59859827	     -4.89019571	      5.45571897	      0.04054322	      0.98402557	      0.26993213	     23.96715499	      6.05082288	     -7.28955724	    -11.36354373	     12.55897729	    -18.31202350	     -9.73645823	    -26.47856639	     -9.91356698	     -7.92295827	      0.43657716	      6.06225610	      6.91326326	     22.91831181	      0.00627929	      0.00457898	     -0.01233547	      7.43340302	    -11.37247116	      5.88761484	     -1.44216889
